HIERARCHY
ROOT Hips
{
	OFFSET	0.00	0.00	0.00
	CHANNELS 6 Xposition Yposition Zposition Zrotation Xrotation Yrotation
	JOINT Spine
	{
		OFFSET	 0.00	0.01	 0.00
		CHANNELS 3 Zrotation Xrotation Yrotation
		JOINT Spine1
		{
			OFFSET	 0.00	 2.45913012437421	 0.00
			CHANNELS 3 Zrotation Xrotation Yrotation
            JOINT Neck
            {
                OFFSET	 0.00	 2.48462964506057	 0.00
                CHANNELS 3 Zrotation Xrotation Yrotation
                JOINT Head
                {
                    OFFSET	 0.00	 0.927524780924562	 0.00
                    CHANNELS 3 Zrotation Xrotation Yrotation
                    End Site 
                    {
                        OFFSET	 0.00	 1.14999962169752	 0.00
                    }
                }
            }
			JOINT LeftShoulder
			{
				OFFSET	 0.00	 2.48462964506057	 0.00
				CHANNELS 3 Zrotation Xrotation Yrotation
				JOINT LeftUpArm
				{
					OFFSET	 0.00	 1.24881979654096	 0.00
					CHANNELS 3 Zrotation Xrotation Yrotation
					JOINT LeftForeArm
					{
						OFFSET	 0.00	2.59758046908119	 0.00
						CHANNELS 3 Zrotation Xrotation Yrotation
						JOINT LeftHand
						{
							OFFSET	 0.00	2.45542024364365	 0.00
							CHANNELS 3 Zrotation Xrotation Yrotation
							JOINT LeftHandThumb 
							{
								OFFSET	 0.00	0.00	 0.00
								CHANNELS 3 Zrotation Xrotation Yrotation
								End Site
								{
									OFFSET	 0.00	0.00	1.00000003353624
								}
							}
							JOINT L_Wrist_End 
							{
								OFFSET	 0.00	0.99999967115358	 0.00
								CHANNELS 3 Zrotation Xrotation Yrotation
								End Site 
								{
									OFFSET	 0.00	 0.00	 0.00
								}
							}
						}
					}
				}
			}
			JOINT RightShoulder
			{
				OFFSET	 0.00	 2.48462964506057	 0.00
				CHANNELS 3 Zrotation Xrotation Yrotation
				JOINT RightUpArm
				{
					OFFSET	 0.00	 1.24881979654096	 0.00
					CHANNELS 3 Zrotation Xrotation Yrotation
					JOINT RightForeArm
					{
						OFFSET	 0.00	2.59758046908119	 0.00
						CHANNELS 3 Zrotation Xrotation Yrotation
						JOINT RightHand
						{
							OFFSET	 0.00	2.45542024364365	 0.00
							CHANNELS 3 Zrotation Xrotation Yrotation
							JOINT RightHandThumb 
							{
								OFFSET	 0.00	0.00	 0.00
								CHANNELS 3 Zrotation Xrotation Yrotation
								End Site
								{
									OFFSET	 0.00	0.00	1.00000003353624
								}
							}
							JOINT R_Wrist_End 
							{
								OFFSET	 0.00	0.99999967115358	 0.00
								CHANNELS 3 Zrotation Xrotation Yrotation
								End Site 
								{
									OFFSET	 0.00	 0.00	 0.00
								}
							}
						}
					}
				}
			}
		}
	}
	JOINT LeftUpLeg
	{
		OFFSET	 1.2719394002717	 0.00	 0.00
		CHANNELS 3 Zrotation Xrotation Yrotation
		JOINT LeftLowLeg
		{
			OFFSET	 0.00	-4.3429100912261	 0.00
			CHANNELS 3 Zrotation Xrotation Yrotation
			JOINT LeftFoot
			{
				OFFSET	 0.00	-4.48767017425826	 0.00
				CHANNELS 3 Zrotation Xrotation Yrotation
				JOINT LeftToeBase
                {
                    OFFSET	 0.00	0.00	 1.51507020887566
                    CHANNELS 3 Zrotation Xrotation Yrotation
                    End Site 
                    {
                        OFFSET	 0.00	0.00	 0.75000010571191
                    }
                }
			}
		}
	}
	JOINT RightUpLeg
	{
		OFFSET	 -1.2719393604653	 0.00	 0.00
		CHANNELS 3 Zrotation Xrotation Yrotation
		JOINT RightLowLeg
		{
			OFFSET	 0.00	-4.3429100912261	 0.00
			CHANNELS 3 Zrotation Xrotation Yrotation
			JOINT RightFoot
			{
				OFFSET	 0.00	-4.48767017425826	 0.00
				CHANNELS 3 Zrotation Xrotation Yrotation
				JOINT RightToeBase
                {
                    OFFSET	 0.00	0.00	 1.51507020887566
                    CHANNELS 3 Zrotation Xrotation Yrotation
                    End Site 
                    {
                        OFFSET	 0.00	0.00	 0.749999965609858
                    }
                }   
			}
		}
	}
}
MOTION 
Frames:	17 
Frame Time: 0.02 
 3.093450012207031 1.8693899536132812 9.845650024414063 -146.122 83.3158 -212.36 2.40427 -6.44635 -1.19285 0.638032 3.91915 -1.3628 -4.44731 27.3585 3.27582 16.5864 -53.1621 10.687 -87.88867 -14.9764 -5.54505 -10.5341 3.92217 -26.3934 0.0 21.6896 0.0 32.8559 -4.51554 22.7713 0.0 0.0 0.0 0.0 0.0 0.0 96.87618 -12.6612 0.550186 4.30844 3.13193 33.6605 0.0 21.1452 0.0 -19.036 -1.51076 -28.329 0.0 0.0 0.0 0.0 0.0 0.0 2.82449 -3.55328 1.00063 0.0 7.2699 0.0 11.3058 7.67562 0.323329 0.0 -37.2487 0.0 4.44993 -2.39635 7.98368 0.0 7.6199 0.0 8.29041 10.01375 -7.23423 0.0 -27.9309 0.0 
  3.093900146484375 1.8681500244140625 9.845579833984376 -146.149 83.3084 -212.342 2.39848 -6.46457 -1.19702 0.654355 3.91404 -1.36562 -4.47178 27.4133 3.27737 16.5282 -53.1335 10.6472 -87.89984 -14.9722 -5.55826 -10.5936 3.9425 -26.4499 0.0 21.7137 0.0 32.8531 -4.56534 22.8529 0.0 0.0 0.0 0.0 0.0 0.0 96.87895 -12.6446 0.55728 4.33908 3.10101 33.6852 0.0 21.1978 0.0 -19.017 -1.53558 -28.3049 0.0 0.0 0.0 0.0 0.0 0.0 2.82245 -3.54526 0.974286 0.0 7.25824 0.0 11.2905 7.67803 0.350417 0.0 -37.2602 0.0 4.44909 -2.38682 8.00366 0.0 7.6009 0.0 8.30074 10.01207 -7.2473 0.0 -27.9342 0.0 
  3.0945199584960936 1.8666299438476563 9.845479736328125 -146.163 83.3013 -212.34 2.40308 -6.48558 -1.19841 0.657297 3.9212 -1.36776 -4.48582 27.4553 3.2828 16.4837 -53.1136 10.644 -87.92093 -14.9623 -5.54908 -10.6182 3.92823 -26.4885 0.0 21.7305 0.0 32.7971 -4.53394 22.8367 0.0 0.0 0.0 0.0 0.0 0.0 96.88397 -12.6463 0.563543 4.37587 3.09474 33.6652 0.0 21.2516 0.0 -19.2215 -1.62887 -28.54 0.0 0.0 0.0 0.0 0.0 0.0 2.82143 -3.53577 0.973495 0.0 7.25026 0.0 11.2906 7.67179 0.364616 0.0 -37.2515 0.0 4.44767 -2.3762 8.03342 0.0 7.58569 0.0 8.31313 10.00803 -7.25889 0.0 -27.9239 0.0 
  3.0952801513671875 1.865260009765625 9.845549926757812 -146.289 83.2829 -212.227 2.43939 -6.41352 -1.2525 0.588041 3.71052 -1.42868 -4.5484 27.5854 3.39483 16.54 -53.0905 10.7339 -87.86725 -15.0864 -5.43825 -10.6715 3.93679 -26.4797 0.0 21.7667 0.0 32.8402 -4.58682 22.7488 0.0 0.0 0.0 0.0 0.0 0.0 96.92866 -12.56 0.438689 4.35414 3.12305 33.7007 0.0 21.2385 0.0 -19.2337 -1.58194 -28.4821 0.0 0.0 0.0 0.0 0.0 0.0 2.81672 -3.55619 1.02252 0.0 7.26626 0.0 11.3105 7.65651 0.340707 0.0 -37.2548 0.0 4.43943 -2.38423 8.01515 0.0 7.56944 0.0 8.30241 10.01418 -7.23846 0.0 -27.9225 0.0 
  3.0958599853515625 1.8643299865722656 9.845390014648437 -146.296 83.282 -212.234 2.43068 -6.43528 -1.25722 0.614367 3.74398 -1.43171 -4.57361 27.5783 3.42355 16.5133 -53.07 10.7252 -87.8983 -15.0799 -5.44363 -10.6628 3.91934 -26.4177 0.0 21.7364 0.0 32.8522 -4.57605 22.7915 0.0 0.0 0.0 0.0 0.0 0.0 96.91691 -12.5459 0.456727 4.37056 3.10795 33.6801 0.0 21.2327 0.0 -19.2481 -1.50779 -28.4866 0.0 0.0 0.0 0.0 0.0 0.0 2.81281 -3.5566 1.03127 0.0 7.28379 0.0 11.3168 7.64496 0.354253 0.0 -37.2551 0.0 4.43744 -2.38783 8.03216 0.0 7.58373 0.0 8.30667 10.00282 -7.23789 0.0 -27.9225 0.0 
  3.09656005859375 1.8633700561523439 9.845170288085937 -146.371 83.2798 -212.171 2.39198 -6.47794 -1.2445 0.694215 3.82354 -1.41128 -4.60645 27.513 3.43869 16.4431 -53.0343 10.6483 -87.95247 -15.0457 -5.48089 -10.6684 3.91814 -26.3477 0.0 21.7022 0.0 32.8431 -4.58632 22.7856 0.0 0.0 0.0 0.0 0.0 0.0 96.879654 -12.6018 0.498647 4.38709 3.12257 33.6496 0.0 21.2237 0.0 -19.3111 -1.49234 -28.4868 0.0 0.0 0.0 0.0 0.0 0.0 2.80261 -3.5582 1.04418 0.0 7.29003 0.0 11.3228 7.63761 0.357371 0.0 -37.260002 0.0 4.42842 -2.39297 8.02645 0.0 7.59199 0.0 8.29484 9.99206 -7.22515 0.0 -27.914501 0.0 
  3.097919921875 1.8614500427246095 9.844860229492188 -146.397 83.2984 -212.161 2.34627 -6.52375 -1.25003 0.78368 3.95003 -1.40837 -4.65818 27.4162 3.48727 16.3885 -52.9996 10.5786 -88.02396 -15.0153 -5.52295 -10.6625 3.85801 -26.2821 0.0 21.6624 0.0 32.7063 -4.57089 22.8688 0.0 0.0 0.0 0.0 0.0 0.0 96.8516 -12.6018 0.562605 4.41124 3.07298 33.6442 0.0 21.2638 0.0 -19.4904 -1.52944 -28.4691 0.0 0.0 0.0 0.0 0.0 0.0 2.78073 -3.52617 1.02953 0.0 7.28682 0.0 11.3166 7.63532 0.387151 0.0 -37.2485 0.0 4.41127 -2.38893 8.0684 0.0 7.63598 0.0 8.33072 9.94864 -7.23108 0.0 -27.904701 0.0 
  3.0989801025390626 1.8610499572753907 9.844829711914063 -146.351 83.3002 -212.215 2.34131 -6.51649 -1.23895 0.817112 3.95852 -1.39598 -4.65281 27.4076 3.47658 16.3705 -53.0027 10.5786 -88.04339 -14.9936 -5.52181 -10.705 3.84532 -26.3923 0.0 21.7115 0.0 32.7018 -4.65058 22.9264 0.0 0.0 0.0 0.0 0.0 0.0 96.84567 -12.6217 0.571777 4.41925 3.04177 33.7164 0.0 21.2707 0.0 -19.4993 -1.45194 -28.4123 0.0 0.0 0.0 0.0 0.0 0.0 2.77795 -3.52035 1.04947 0.0 7.29238 0.0 11.3253 7.62635 0.382543 0.0 -37.248398 0.0 4.41235 -2.38949 8.10622 0.0 7.64938 0.0 8.32613 9.9475 -7.26767 0.0 -27.9264 0.0 
  3.100260009765625 1.8595100402832032 9.844559936523437 -146.288 83.3136 -212.264 2.42893 -6.49085 -1.18293 0.650184 3.92308 -1.35726 -4.48288 27.4362 3.31268 16.4058 -52.9932 10.6501 -87.96005 -14.8813 -5.49792 -10.7347 3.79613 -26.515 0.0 21.7601 0.0 32.6591 -4.68246 22.8667 0.0 0.0 0.0 0.0 0.0 0.0 96.94711 -12.7108 0.566947 4.43086 2.98579 33.7991 0.0 21.2873 0.0 -19.5548 -1.39877 -28.2539 0.0 0.0 0.0 0.0 0.0 0.0 2.76898 -3.49867 1.0509 0.0 7.29467 0.0 11.336 7.61424 0.372965 0.0 -37.2551 0.0 4.41052 -2.377 8.20254 0.0 7.68311 0.0 8.36939 9.9006405 -7.35624 0.0 -27.9071 0.0 
  3.1011700439453125 1.8588999938964843 9.844539794921875 -146.231 83.3138 -212.321 2.41227 -6.48649 -1.18675 0.705445 3.93604 -1.35756 -4.49901 27.4273 3.31935 16.3991 -53.0122 10.6382 -88.01469 -14.8711 -5.51722 -10.7141 3.76069 -26.4627 0.0 21.7628 0.0 32.6881 -4.68728 22.7813 0.0 0.0 0.0 0.0 0.0 0.0 96.94333 -12.7238 0.577349 4.43846 2.96286 33.8535 0.0 21.3227 0.0 -19.6751 -1.43383 -28.1608 0.0 0.0 0.0 0.0 0.0 0.0 2.77083 -3.49713 1.05281 0.0 7.30827 0.0 11.3444 7.60175 0.365823 0.0 -37.2524 0.0 4.40505 -2.36062 8.10401 0.0 7.66175 0.0 8.34475 9.9269 -7.27104 0.0 -27.9247 0.0 
  3.102969970703125 1.8573699951171876 9.844450073242188 -146.27 83.3124 -212.25 2.38407 -6.48541 -1.22664 0.774302 3.94314 -1.39203 -4.54669 27.4067 3.37614 16.4042 -53.0024 10.6189 -88.09231 -14.884 -5.49923 -10.6729 3.6779 -26.2596 0.0 21.7462 0.0 32.7936 -4.52111 22.7933 0.0 0.0 0.0 0.0 0.0 0.0 96.95502 -12.7286 0.575814 4.45392 2.94136 33.991 0.0 21.3991 0.0 -19.8183 -1.5182 -27.7703 0.0 0.0 0.0 0.0 0.0 0.0 2.75386 -3.50522 0.981912 0.0 7.32355 0.0 11.3511 7.60116 0.400883 0.0 -37.246902 0.0 4.39165 -2.35407 8.07763 0.0 7.66643 0.0 8.34256 9.907761 -7.28118 0.0 -27.9209 0.0 
  3.1040899658203127 1.8568699645996094 9.844409790039062 -146.3 83.3022 -212.206 2.42756 -6.46086 -1.20932 0.710955 3.87378 -1.38275 -4.51468 27.4581 3.34496 16.4383 -53.0022 10.6334 -88.04824 -14.8285 -5.46327 -10.7447 3.63463 -26.355 0.0 21.8048 0.0 32.878 -4.49125 22.9223 0.0 0.0 0.0 0.0 0.0 0.0 97.01117 -12.7548 0.534714 4.4594 2.88743 34.0473 0.0 21.4728 0.0 -19.9464 -1.54113 -27.6434 0.0 0.0 0.0 0.0 0.0 0.0 2.74671 -3.51411 0.953283 0.0 7.32149 0.0 11.3605 7.60333 0.422688 0.0 -37.232597 0.0 4.38506 -2.35588 8.0173 0.0 7.65772 0.0 8.32191 9.91432 -7.2484 0.0 -27.914 0.0 
  3.1052200317382814 1.8551699829101562 9.844140014648438 -146.345 83.2969 -212.132 2.3948 -6.4656 -1.21423 0.769526 3.84998 -1.38082 -4.47672 27.5422 3.2941 16.4286 -53.037 10.6914 -88.10479 -14.7161 -5.44075 -10.8076 3.44686 -26.4653 0.0 22.0535 0.0 33.0072 -4.66798 22.9635 0.0 0.0 0.0 0.0 0.0 0.0 96.99382 -12.7513 0.506534 4.5588 2.76128 34.184 0.0 21.6216 0.0 -20.0017 -1.29475 -27.1515 0.0 0.0 0.0 0.0 0.0 0.0 2.73892 -3.50908 0.979184 0.0 7.30618 0.0 11.3722 7.59419 0.375316 0.0 -37.253998 0.0 4.37961 -2.35291 8.061 0.0 7.6691 0.0 8.35356 9.87696 -7.30311 0.0 -27.906101 0.0 
  3.104580078125 1.8514199829101563 9.84468017578125 -146.061 83.3895 -212.531 2.38962 -6.3977 -1.17575 0.726739 3.82755 -1.34161 -4.45358 27.6951 3.28986 16.5056 -53.0949 10.8178 -88.14326 -14.6472 -5.41355 -10.8408 3.22665 -26.6604 0.0 22.3746 0.0 33.0452 -4.7868 23.1454 0.0 0.0 0.0 0.0 0.0 0.0 97.07751 -12.6366 0.445849 4.62942 2.56722 34.3419 0.0 21.9084 0.0 -20.0691 -1.23832 -26.9029 0.0 0.0 0.0 0.0 0.0 0.0 2.73487 -3.32119 1.15796 0.0 7.21469 0.0 11.3767 7.61055 0.291098 0.0 -37.2586 0.0 4.37262 -2.23875 8.2156 0.0 7.65906 0.0 8.33545 9.88229 -7.36509 0.0 -27.9122 0.0 
  3.1076199340820314 1.8541999816894532 9.844409790039062 -146.358 83.2936 -212.091 2.43883 -6.43174 -1.23237 0.705349 3.73922 -1.4071 -4.44962 27.7876 3.2818 16.5019 -53.1137 10.8662 -88.24461 -14.4865 -5.38 -10.9139 2.93425 -26.9255 0.0 22.8294 0.0 33.1772 -4.89856 23.2413 0.0 0.0 0.0 0.0 0.0 0.0 97.11824 -12.5653 0.411461 4.72196 2.35321 34.5292 0.0 22.2464 0.0 -20.0899 -1.00965 -26.7318 0.0 0.0 0.0 0.0 0.0 0.0 2.72447 -3.50816 0.952731 0.0 7.29751 0.0 11.3791 7.60474 0.367659 0.0 -37.2514 0.0 4.36532 -2.33304 8.07619 0.0 7.63928 0.0 8.37319 9.87932 -7.34398 0.0 -27.913399 0.0 
  3.1092498779296873 1.8541299438476562 9.844320068359375 -146.378 83.2726 -212.043 2.3763 -6.48728 -1.28537 0.868351 3.8228 -1.44802 -4.56105 27.7983 3.38393 16.451 -53.1285 10.8411 -88.44973 -14.3995 -5.38914 -10.9935 2.62185 -27.0888 0.0 23.3044 0.0 33.231 -4.82356 23.2995 0.0 0.0 0.0 0.0 0.0 0.0 97.08134 -12.4739 0.456149 4.85344 2.19254 34.6482 0.0 22.6656 0.0 -20.3323 -0.898441 -26.4529 0.0 0.0 0.0 0.0 0.0 0.0 2.72145 -3.53777 0.917006 0.0 7.30732 0.0 11.3806 7.60082 0.378411 0.0 -37.2608 0.0 4.36257 -2.34509 8.03424 0.0 7.63199 0.0 8.36406 9.886391 -7.33754 0.0 -27.8992 0.0 
  3.110690002441406 1.853520050048828 9.844290161132813 -146.446 83.2613 -211.971 2.38396 -6.49504 -1.29281 0.875513 3.7983 -1.45657 -4.58424 27.9038 3.40595 16.4639 -53.163 10.8949 -88.58902 -14.2586 -5.30986 -11.0749 2.30172 -27.2578 0.0 23.8202 0.0 33.3146 -4.71343 23.2669 0.0 0.0 0.0 0.0 0.0 0.0 97.13359 -12.4095 0.418882 4.97843 1.99542 34.8267 0.0 23.1493 0.0 -20.4251 -0.584602 -26.4067 0.0 0.0 0.0 0.0 0.0 0.0 2.70963 -3.54149 0.889917 0.0 7.29376 0.0 11.3814 7.60761 0.400574 0.0 -37.2491 0.0 4.35289 -2.35707 8.00726 0.0 7.63701 0.0 8.36246 9.883551 -7.31513 0.0 -27.9183 0.0 
